<svg xmlns="http://www.w3.org/2000/svg" width="21.04" height="21.094" viewBox="0 0 21.04 21.094">
  <metadata><?xpacket begin="﻿" id="W5M0MpCehiHzreSzNTczkc9d"?>
<x:xmpmeta xmlns:x="adobe:ns:meta/" x:xmptk="Adobe XMP Core 5.6-c138 79.159824, 2016/09/14-01:09:01        ">
   <rdf:RDF xmlns:rdf="http://www.w3.org/1999/02/22-rdf-syntax-ns#">
      <rdf:Description rdf:about=""/>
   </rdf:RDF>
</x:xmpmeta>
<?xpacket end="w"?></metadata>
<defs>
    <style>
      .cls-1 {
        fill: #d50246;
        fill-rule: evenodd;
      }
    </style>
  </defs>
  <path class="cls-1" d="M2617.6,272.253l-6.06-6.086,6.06-6.083a2.628,2.628,0,0,0,0-3.707,2.6,2.6,0,0,0-3.69,0l-6.06,6.083-6.06-6.085a2.6,2.6,0,0,0-3.69,0,2.628,2.628,0,0,0,0,3.707l6.06,6.085-6.06,6.084a2.622,2.622,0,0,0,1.85,4.476,2.58,2.58,0,0,0,1.84-.768l6.06-6.085,6.06,6.085A2.615,2.615,0,1,0,2617.6,272.253Z" transform="translate(-2597.34 -255.625)"/>
</svg>
