<svg
 xmlns="http://www.w3.org/2000/svg"
 xmlns:xlink="http://www.w3.org/1999/xlink"
 width="1.27cm" height="1.199cm">
<path fill-rule="evenodd"  fill="rgb(213, 2, 70)"
 d="M35.276,0.115 L0.741,0.115 C0.346,0.115 0.027,0.434 0.027,0.829 L0.027,33.270 C0.027,33.665 0.346,33.985 0.741,33.985 L35.276,33.985 C35.671,33.985 35.990,33.665 35.990,33.270 L35.990,0.829 C35.990,0.434 35.671,0.115 35.276,0.115 ZM6.063,30.820 L3.206,30.820 L3.206,27.964 L6.063,27.964 L6.063,30.820 ZM6.063,22.489 L3.206,22.489 L3.206,19.634 L6.063,19.634 L6.063,22.489 ZM6.063,14.158 L3.205,14.158 L3.205,11.302 L6.063,11.302 L6.063,14.158 ZM6.063,6.542 L3.206,6.542 L3.206,3.685 L6.063,3.685 L6.063,6.542 ZM26.710,30.977 L9.135,30.977 L9.135,19.007 L26.710,19.007 L26.710,30.977 ZM26.710,15.030 L9.135,15.030 L9.135,3.029 L26.710,3.029 L26.710,15.030 ZM32.774,30.820 L29.917,30.820 L29.917,27.964 L32.774,27.964 L32.774,30.820 ZM32.774,22.489 L29.917,22.489 L29.917,19.634 L32.774,19.634 L32.774,22.489 ZM32.774,14.158 L29.917,14.158 L29.917,11.302 L32.774,11.302 L32.774,14.158 ZM32.774,6.542 L29.917,6.542 L29.917,3.685 L32.774,3.685 L32.774,6.542 Z"/>
</svg>