<svg
 xmlns="http://www.w3.org/2000/svg"
 xmlns:xlink="http://www.w3.org/1999/xlink"
 width="57px" height="57px">
<path fill-rule="evenodd"  fill="rgb(255, 255, 255)"
 d="M39.837,7.018 C30.754,-2.066 16.029,-2.066 6.946,7.018 C-2.136,16.099 -2.136,30.824 6.946,39.907 C14.240,47.201 25.170,48.624 33.899,44.201 L43.108,53.412 C43.159,53.466 43.194,53.530 43.246,53.584 C46.080,56.412 50.675,56.412 53.510,53.584 C56.344,50.748 56.344,46.148 53.509,43.315 C53.457,43.265 53.395,43.231 53.341,43.177 L44.132,33.972 C48.554,25.240 47.131,14.308 39.837,7.018 ZM33.441,33.514 C27.891,39.063 18.892,39.063 13.341,33.514 C7.791,27.958 7.791,18.962 13.341,13.412 C18.892,7.858 27.891,7.858 33.441,13.412 C38.992,18.962 38.992,27.958 33.441,33.514 Z"/>
</svg>