<?xml version="1.0" encoding="utf-8"?>
<!-- Generator: Adobe Illustrator 21.0.0, SVG Export Plug-In . SVG Version: 6.00 Build 0)  -->
<svg version="1.1" id="Layer_1" xmlns="http://www.w3.org/2000/svg" xmlns:xlink="http://www.w3.org/1999/xlink" x="0px" y="0px"
	 viewBox="0 0 26 19" style="enable-background:new 0 0 26 19;" xml:space="preserve">
<style type="text/css">
	
		.st0{clip-path:url(#SVGID_2_);fill:none;stroke:#FFFFFF;stroke-width:3;stroke-linecap:round;stroke-linejoin:round;stroke-miterlimit:10;}
	.st1{fill:#FFFFFF;}
</style>
<g>
	<g>
		<defs>
			<rect id="SVGID_1_" y="0" width="26" height="19"/>
		</defs>
		<clipPath id="SVGID_2_">
			<use xlink:href="#SVGID_1_"  style="overflow:visible;"/>
		</clipPath>
		<path class="st0" d="M17.1,13.3c-1-1.1-2.5-1.8-4.1-1.8c-1.6,0-3.1,0.7-4.1,1.8 M20.4,9.6c-1.9-1.9-4.5-3.1-7.4-3.1
			c-2.9,0-5.5,1.2-7.4,3.1 M23.7,5.8C20.9,3.1,17.2,1.5,13,1.5S5.1,3.1,2.3,5.8"/>
	</g>
	<path class="st1" d="M14.8,17c0,1-0.8,1.8-1.8,1.8c-1,0-1.8-0.8-1.8-1.8c0-1,0.8-1.8,1.8-1.8C14,15.2,14.8,16,14.8,17L14.8,17z
		 M14.8,17"/>
</g>
</svg>
